name analog
datacolumns 19
datarows 50
range 0.211 0.23550000000000001
endheader
time	ground_force_vx	ground_force_vy	ground_force_vz	ground_force_px	ground_force_py	ground_force_pz	l_ground_force_vx	l_ground_force_vy	l_ground_force_vz	l_ground_force_px	l_ground_force_py	l_ground_force_pz	ground_torque_x	ground_torque_y	ground_torque_z	l_ground_torque_x	l_ground_torque_y	l_ground_torque_z
0.211	-0.0	-0.0	-0.0	0.4988327622413635	3.084763765335083	-791.123046875	-0.0	-0.0	-0.0	-0.0	-0.0	-0.0	-0.0	-0.0	-0.0	-0.0	-0.0	-0.0
0.2115	-0.0	-0.0	-0.0	0.5172681212425232	2.763042449951172	-791.6869506835938	-0.0	-0.0	-0.0	-0.0	-0.0	-0.0	-0.0	-0.0	-0.0	-0.0	-0.0	-0.0
0.212	-0.0	-0.0	-0.0	0.4460525512695312	2.567828893661499	-790.34521484375	-0.0	-0.0	-0.0	-0.0	-0.0	-0.0	-0.0	-0.0	-0.0	-0.0	-0.0	-0.0
0.2125	-0.0	-0.0	-0.0	0.8558235168457031	1.7811158895492554	-793.1043701171875	-0.0	-0.0	-0.0	-0.0	-0.0	-0.0	-0.0	-0.0	-0.0	-0.0	-0.0	-0.0
0.213	-0.0	-0.0	-0.0	1.0176897048950195	1.3750205039978027	-794.5108642578125	-0.0	-0.0	-0.0	-0.0	-0.0	-0.0	-0.0	-0.0	-0.0	-0.0	-0.0	-0.0
0.2135	-0.0	-0.0	-0.0	1.69293212890625	0.5368480682373047	-794.3821411132812	-0.0	-0.0	-0.0	-0.0	-0.0	-0.0	-0.0	-0.0	-0.0	-0.0	-0.0	-0.0
0.214	-0.0	-0.0	-0.0	1.92841911315918	0.372386634349823	-796.4933471679688	-0.0	-0.0	-0.0	-0.0	-0.0	-0.0	-0.0	-0.0	-0.0	-0.0	-0.0	-0.0
0.2145	-0.0	-0.0	-0.0	1.7160590887069702	-0.0340449661016464	-797.5531005859375	-0.0	-0.0	-0.0	-0.0	-0.0	-0.0	-0.0	-0.0	-0.0	-0.0	-0.0	-0.0
0.215	-0.0	-0.0	-0.0	2.747067451477051	-0.713043212890625	-796.1406860351562	-0.0	-0.0	-0.0	-0.0	-0.0	-0.0	-0.0	-0.0	-0.0	-0.0	-0.0	-0.0
0.2155	-0.0	-0.0	-0.0	2.9439468383789062	-0.3750287294387817	-798.8062133789062	-0.0	-0.0	-0.0	-0.0	-0.0	-0.0	-0.0	-0.0	-0.0	-0.0	-0.0	-0.0
0.216	-0.0	-0.0	-0.0	2.821235179901123	0.1746258437633514	-798.1866455078125	-0.0	-0.0	-0.0	-0.0	-0.0	-0.0	-0.0	-0.0	-0.0	-0.0	-0.0	-0.0
0.2165	-0.0	-0.0	-0.0	2.230262756347656	-0.4456520080566406	-797.406494140625	-0.0	-0.0	-0.0	-0.0	-0.0	-0.0	-0.0	-0.0	-0.0	-0.0	-0.0	-0.0
0.217	-0.0	-0.0	-0.0	1.9108120203018188	-0.6425917148590088	-796.4778442382812	-0.0	-0.0	-0.0	-0.0	-0.0	-0.0	-0.0	-0.0	-0.0	-0.0	-0.0	-0.0
0.2175	-0.0	-0.0	-0.0	1.2677114009857178	-0.8725566267967224	-797.2575073242188	-0.0	-0.0	-0.0	-0.0	-0.0	-0.0	-0.0	-0.0	-0.0	-0.0	-0.0	-0.0
0.218	-0.0	-0.0	-0.0	1.1597366333007812	-1.1260380744934082	-796.067626953125	-0.0	-0.0	-0.0	-0.0	-0.0	-0.0	-0.0	-0.0	-0.0	-0.0	-0.0	-0.0
0.2185	-0.0	-0.0	-0.0	1.0054278373718262	-1.42608642578125	-796.0469360351562	-0.0	-0.0	-0.0	-0.0	-0.0	-0.0	-0.0	-0.0	-0.0	-0.0	-0.0	-0.0
0.219	-0.0	-0.0	-0.0	1.5924478769302368	-1.8071792125701904	-796.2929077148438	-0.0	-0.0	-0.0	-0.0	-0.0	-0.0	-0.0	-0.0	-0.0	-0.0	-0.0	-0.0
0.2195	-0.0	-0.0	-0.0	1.8864991664886477	-2.903271436691284	-798.6669921875	-0.0	-0.0	-0.0	-0.0	-0.0	-0.0	-0.0	-0.0	-0.0	-0.0	-0.0	-0.0
0.22	-0.0	-0.0	-0.0	2.376709461212158	-3.4699079990386963	-799.8770141601562	-0.0	-0.0	-0.0	-0.0	-0.0	-0.0	-0.0	-0.0	-0.0	-0.0	-0.0	-0.0
0.2205	-0.0	-0.0	-0.0	3.4600510597229004	-3.0812807083129883	-799.7012939453125	-0.0	-0.0	-0.0	-0.0	-0.0	-0.0	-0.0	-0.0	-0.0	-0.0	-0.0	-0.0
0.221	-0.0	-0.0	-0.0	4.275294780731201	-3.2334609031677246	-800.028564453125	-0.0	-0.0	-0.0	-0.0	-0.0	-0.0	-0.0	-0.0	-0.0	-0.0	-0.0	-0.0
0.2215	-0.0	-0.0	-0.0	4.53761625289917	-3.2906782627105717	-797.957763671875	-0.0	-0.0	-0.0	-0.0	-0.0	-0.0	-0.0	-0.0	-0.0	-0.0	-0.0	-0.0
0.222	-0.0	-0.0	-0.0	4.383126735687256	-3.247359037399292	-798.1866455078125	-0.0	-0.0	-0.0	-0.0	-0.0	-0.0	-0.0	-0.0	-0.0	-0.0	-0.0	-0.0
0.2225	-0.0	-0.0	-0.0	4.491490364074707	-3.97207260131836	-798.1098022460938	-0.0	-0.0	-0.0	-0.0	-0.0	-0.0	-0.0	-0.0	-0.0	-0.0	-0.0	-0.0
0.223	-0.0	-0.0	-0.0	3.855547428131104	-3.902259826660156	-795.8360595703125	-0.0	-0.0	-0.0	-0.0	-0.0	-0.0	-0.0	-0.0	-0.0	-0.0	-0.0	-0.0
0.2235	-0.0	-0.0	-0.0	4.212415218353272	-4.021984100341797	-795.1293334960938	-0.0	-0.0	-0.0	-0.0	-0.0	-0.0	-0.0	-0.0	-0.0	-0.0	-0.0	-0.0
0.224	-0.0	-0.0	-0.0	3.718532085418701	-5.121710300445557	-792.5787353515625	-0.0	-0.0	-0.0	-0.0	-0.0	-0.0	-0.0	-0.0	-0.0	-0.0	-0.0	-0.0
0.2245	-0.0	-0.0	-0.0	3.5578770637512207	-5.634864330291748	-790.7698974609375	-0.0	-0.0	-0.0	-0.0	-0.0	-0.0	-0.0	-0.0	-0.0	-0.0	-0.0	-0.0
0.225	-0.0	-0.0	-0.0	3.816339492797852	-6.199738502502441	-788.53173828125	-0.0	-0.0	-0.0	-0.0	-0.0	-0.0	-0.0	-0.0	-0.0	-0.0	-0.0	-0.0
0.2255	-0.0	-0.0	-0.0	4.59938383102417	-7.338922500610352	-787.3547973632812	-0.0	-0.0	-0.0	-0.0	-0.0	-0.0	-0.0	-0.0	-0.0	-0.0	-0.0	-0.0
0.226	-0.0	-0.0	-0.0	5.699694633483887	-8.516535758972168	-788.5709838867188	-0.0	-0.0	-0.0	-0.0	-0.0	-0.0	-0.0	-0.0	-0.0	-0.0	-0.0	-0.0
0.2265	-0.0	-0.0	-0.0	6.303733825683594	-9.071414947509766	-788.7676391601562	-0.0	-0.0	-0.0	-0.0	-0.0	-0.0	-0.0	-0.0	-0.0	-0.0	-0.0	-0.0
0.227	-0.0	-0.0	-0.0	6.630836486816406	-9.55691909790039	-788.0235595703125	-0.0	-0.0	-0.0	-0.0	-0.0	-0.0	-0.0	-0.0	-0.0	-0.0	-0.0	-0.0
0.2275	-0.0	-0.0	-0.0	6.55246639251709	-10.011640548706056	-787.5555419921875	-0.0	-0.0	-0.0	-0.0	-0.0	-0.0	-0.0	-0.0	-0.0	-0.0	-0.0	-0.0
0.228	-0.0	-0.0	-0.0	6.166789531707764	-10.735801696777344	-788.18310546875	-0.0	-0.0	-0.0	-0.0	-0.0	-0.0	-0.0	-0.0	-0.0	-0.0	-0.0	-0.0
0.2285	-0.0	-0.0	-0.0	5.839033603668213	-11.549790382385254	-786.6914672851562	-0.0	-0.0	-0.0	-0.0	-0.0	-0.0	-0.0	-0.0	-0.0	-0.0	-0.0	-0.0
0.229	-0.0	-0.0	-0.0	4.906578063964844	-11.959956169128418	-786.1458129882812	-0.0	-0.0	-0.0	-0.0	-0.0	-0.0	-0.0	-0.0	-0.0	-0.0	-0.0	-0.0
0.2295	-0.0	-0.0	-0.0	4.699828624725342	-13.000789642333984	-784.9750366210938	-0.0	-0.0	-0.0	-0.0	-0.0	-0.0	-0.0	-0.0	-0.0	-0.0	-0.0	-0.0
0.23	-0.0	-0.0	-0.0	4.2821044921875	-13.83556079864502	-784.9077758789062	-0.0	-0.0	-0.0	-0.0	-0.0	-0.0	-0.0	-0.0	-0.0	-0.0	-0.0	-0.0
0.2305	-0.0	-0.0	-0.0	5.059296607971191	-14.342440605163574	-784.68505859375	-0.0	-0.0	-0.0	-0.0	-0.0	-0.0	-0.0	-0.0	-0.0	-0.0	-0.0	-0.0
0.231	-0.0	-0.0	-0.0	5.380363464355469	-15.124460220336914	-783.8399047851562	-0.0	-0.0	-0.0	-0.0	-0.0	-0.0	-0.0	-0.0	-0.0	-0.0	-0.0	-0.0
0.2315	-0.0	-0.0	-0.0	5.668356895446777	-15.508689880371094	-785.6073608398438	-0.0	-0.0	-0.0	-0.0	-0.0	-0.0	-0.0	-0.0	-0.0	-0.0	-0.0	-0.0
0.232	-0.0	-0.0	-0.0	6.388743877410889	-16.13260269165039	-787.7544555664062	-0.0	-0.0	-0.0	-0.0	-0.0	-0.0	-0.0	-0.0	-0.0	-0.0	-0.0	-0.0
0.2325	-0.0	-0.0	-0.0	6.670104026794434	-16.201066970825195	-790.5805053710938	-0.0	-0.0	-0.0	-0.0	-0.0	-0.0	-0.0	-0.0	-0.0	-0.0	-0.0	-0.0
0.233	-0.0	-0.0	-0.0	6.999879360198975	-16.632247924804688	-791.722412109375	-0.0	-0.0	-0.0	-0.0	-0.0	-0.0	-0.0	-0.0	-0.0	-0.0	-0.0	-0.0
0.2335	-0.0	-0.0	-0.0	7.142856121063232	-15.790851593017578	-792.888916015625	-0.0	-0.0	-0.0	-0.0	-0.0	-0.0	-0.0	-0.0	-0.0	-0.0	-0.0	-0.0
0.234	-0.0	-0.0	-0.0	7.074213981628418	-15.351285934448242	-791.6414794921875	-0.0	-0.0	-0.0	-0.0	-0.0	-0.0	-0.0	-0.0	-0.0	-0.0	-0.0	-0.0
0.23450000000000001	-0.0	-0.0	-0.0	7.336182594299316	-15.550494194030762	-793.6171875	-0.0	-0.0	-0.0	-0.0	-0.0	-0.0	-0.0	-0.0	-0.0	-0.0	-0.0	-0.0
0.23500000000000001	-0.0	-0.0	-0.0	7.226051330566406	-15.089221954345703	-793.5953369140625	-0.0	-0.0	-0.0	-0.0	-0.0	-0.0	-0.0	-0.0	-0.0	-0.0	-0.0	-0.0
0.23550000000000001	-0.0	-0.0	-0.0	6.9422993659973145	-14.983790397644045	-792.1187744140625	-0.0	-0.0	-0.0	-0.0	-0.0	-0.0	-0.0	-0.0	-0.0	-0.0	-0.0	-0.0
